<svg xmlns="http://www.w3.org/2000/svg" fill="none" viewBox="0 0 44 44">
  <circle cx="22" cy="22" r="21.4887" fill="url(#a)" stroke="url(#b)" stroke-width="1.02254"/>
  <defs>
    <linearGradient id="a" x1="22" x2="22" y1="0" y2="44" gradientUnits="userSpaceOnUse">
      <stop stop-color="#0B1025"/>
      <stop offset="1" stop-color="#191F40"/>
    </linearGradient>
    <linearGradient id="b" x1="22" x2="39.8864" y1="-5.3e-7" y2="44" gradientUnits="userSpaceOnUse">
      <stop stop-color="#0A0D1E"/>
      <stop offset="1" stop-color="#333C7A"/>
    </linearGradient>
  </defs>
  <path fill="#a76dff" d="M22 25.084646c1.118122.01925 2.727937-1.407339 3.537718-1.995396 4.716794-3.42297 6.219757-4.541709 7.275446-5.357289l.105865-.08193c.05232-.04047.103767-.08045.154602-.120055l.101053-.07872c.117217-.09155.232829-.182241.351403-.275274l.10241-.08045c.08612-.06762.174468-.136958.266637-.209263.279469-.216912.443449-.554249.443449-.910957v-.91577c0-1.277166-1.036318-2.313484-2.313485-2.313484H11.974902c-1.277291 0-2.3134847 1.036318-2.3134847 2.313484v.91577c0 .356708.1638564.689233.4434487.910957.221231.172741.420252.328824.620261.48503l.100189.07823.101053.0786c1.084438.843219 2.419226 1.84795 7.535913 5.561123.809781.588057 2.419472 2.014644 3.537718 1.995396z" style="stroke-width:1.23386"/>
  <path fill="#a76dff" d="M32.025098 31.253937c1.277167 0 2.313485-1.036194 2.313485-2.313484v-9.85643c0-.236161-.279593-.375833-.467633-.226537-1.079502.838654-2.506213 1.908656-7.422397 5.480058-.978327.713417-2.727938 2.308673-4.448553 2.294237-1.710991.0096-3.426795-1.551947-4.443864-2.294237-4.588349-3.333268-6.141283-4.483347-7.205609-5.303739l-.112281-.08674c-.03689-.0285-.07329-.05676-.10932-.08464-.1927284-.14942-.4675087-.01456-.4675087.226413v9.851618c0 1.27729 1.0361937 2.313484 2.3134847 2.313484z" style="stroke-width:1.23386"/>
</svg>