<svg xmlns="http://www.w3.org/2000/svg" fill="none" viewBox="0 0 44 44"><defs/><g clip-path="url(#clip0_1796_7291)"><path fill="url(#paint0_linear_1796_7291)" d="M22 43.489c11.868 0 21.489-9.621 21.489-21.489S33.868.511 22 .511.511 10.132.511 22s9.621 21.489 21.49 21.489z"/><path fill="#A76DFF" d="M24.048 20.316L32.062 11h-1.9l-6.958 8.088L17.647 11h-6.41l8.404 12.231L11.237 33h1.899l7.348-8.542L26.354 33h6.41l-8.716-12.684zm-2.601 3.023l-.852-1.218-6.775-9.691h2.917l5.468 7.82.851 1.219 7.108 10.166h-2.917l-5.8-8.296z"/></g><defs><linearGradient id="paint0_linear_1796_7291" x1="22" x2="22" y1="0" y2="44" gradientUnits="userSpaceOnUse"><stop stop-color="#0B1025"/><stop offset="1" stop-color="#191F40"/></linearGradient><clipPath id="clip0_1796_7291"><path fill="#fff" d="M0 0h44v44H0z"/></clipPath></defs></svg>