<svg xmlns="http://www.w3.org/2000/svg" fill="none" viewBox="0 0 44 44">
  <circle cx="22" cy="22" r="21.488701" fill="url(#a)" stroke="url(#b)" stroke-width="1.02254" style="fill:url(#a);stroke:url(#paint1_linear_1787_6740)"/>
  <path fill="#a76dff" d="M22.03993 14.00003c-1.78948 0-3.24005 1.45057-3.24005 3.23994s1.45057 3.24005 3.24005 3.24005c1.78937 0 3.23994-1.45068 3.23994-3.24005 0-1.78937-1.45057-3.23994-3.23994-3.23994zm-8.63984 4.31992c-1.19295 0-2.15996.96712-2.15996 2.16007 0 1.19295.96701 2.15996 2.15996 2.15996 1.19295 0 2.15996-.96701 2.15996-2.15996 0-1.19295-.96701-2.16007-2.15996-2.16007z" style="stroke-width:1.1"/>
  <path fill="#a76dff" fill-rule="evenodd" d="M30.67999 18.31995c-1.19295 0-2.15996.96712-2.15996 2.16007 0 1.19295.96701 2.15996 2.15996 2.15996 1.19295 0 2.15996-.96701 2.15996-2.15996 0-1.19295-.96701-2.16007-2.15996-2.16007zM36.08 26.62308c0-.48059-.17611-.94391-.50545-1.29492-.74844-.79816-2.34256-1.6082-4.89456-1.6082s-4.14612.81004-4.89456 1.6082c-.32945.35101-.50545.81323-.50545 1.29492v1.41691H36.08Zm-17.78546-1.29492c.32945.35101.50545.81433.50545 1.29492v1.41691H7.999981v-1.41691c0-.48169.176033-.94391.505439-1.29492.74844-.79816 2.342516-1.6082 4.89456-1.6082 2.552 0 4.14612.81004 4.89456 1.6082z" clip-rule="evenodd" style="stroke-width:1.1"/>
  <path fill="#a76dff" d="M28.52003 25.6014c0-.57673-.21164-1.1319-.60698-1.55309-.89738-.95799-2.81116-2.48831-5.87301-2.48831-3.06174 0-4.97552 1.53032-5.87301 2.48721-.39534.42119-.60698.97636-.60698 1.55419v2.43859h12.95998z" style="stroke-width:1.1"/>
  <defs>
    <linearGradient id="a" x1="22" x2="22" y1="0" y2="44" gradientTransform="translate(-.00000184)" gradientUnits="userSpaceOnUse">
      <stop stop-color="#0B1025"/>
      <stop offset="1" stop-color="#191F40"/>
    </linearGradient>
    <linearGradient id="b" x1="22" x2="39.886398" y1="-5.3e-7" y2="44" gradientTransform="translate(-.00000184)" gradientUnits="userSpaceOnUse">
      <stop stop-color="#0A0D1E"/>
      <stop offset="1" stop-color="#333C7A"/>
    </linearGradient>
  </defs>
</svg>