<svg width="14" height="17" viewBox="0 0 14 17" fill="none" xmlns="http://www.w3.org/2000/svg">
<path d="M13.795 14.8964C14.106 15.2668 14.0576 15.818 13.6879 16.129C13.5215 16.2671 13.3247 16.3327 13.1242 16.3327C12.8747 16.3327 12.6269 16.2268 12.4538 16.0206L6.9996 9.52645L1.54581 16.0192C1.37192 16.227 1.12402 16.3327 0.874293 16.3327C0.6755 16.3327 0.476196 16.2655 0.312144 16.1277C-0.0575177 15.8167 -0.106004 15.2651 0.205037 14.8951L5.85853 8.16665L0.205147 1.43836C-0.105858 1.06797 -0.0574448 0.516756 0.312254 0.205788C0.681442 -0.10591 1.23375 -0.0581524 1.54508 0.312603L6.9996 6.80684L12.4534 0.314061C12.765 -0.0566943 13.3163 -0.104087 13.686 0.206954C14.0556 0.517995 14.1041 1.0695 13.7931 1.43953L8.14067 8.16665L13.795 14.8964Z" fill="#878D96"/>
</svg>
